<?xml version="1.0" encoding="utf-8"?>
<!-- Generator: Adobe Illustrator 23.0.1, SVG Export Plug-In . SVG Version: 6.00 Build 0)  -->
<svg version="1.1" id="Layer_1" xmlns="http://www.w3.org/2000/svg" xmlns:xlink="http://www.w3.org/1999/xlink" x="0px" y="0px"
	 viewBox="0 0 57 56" style="enable-background:new 0 0 57 56;" xml:space="preserve">
<style type="text/css">
	.st0{fill:#005286;}
</style>
<g>
	<path class="st0" d="M14,51.47h31.58c3.24,0,5.86-1.32,7.19-3.63c1.33-2.31,1.17-5.24-0.45-8.04L36.53,12.45
		c-1.62-2.8-4.08-4.41-6.74-4.41c-2.66,0-5.12,1.61-6.74,4.41L7.26,39.8c-1.62,2.8-1.78,5.74-0.45,8.04
		C8.14,50.15,10.76,51.47,14,51.47z M29.71,46.9c-2.25,0-3.94-1.97-3.94-3.98c0-1.93,1.45-4.09,3.94-4.09
		c2.45,0,4.11,1.89,4.11,4.09C33.82,45.08,32.23,46.9,29.71,46.9z M26.49,19.37h6.6c0.55,0,1.04,0.45,1,1
		c-0.34,4.23-2.08,15.1-2.4,16.11c-0.17,0.53-0.75,0.95-1.3,0.95h-1.15c-0.55,0-1.17-0.41-1.36-0.93
		c-0.32-0.88-2.15-12.07-2.38-16.13C25.46,19.82,25.94,19.37,26.49,19.37z"/>
</g>
</svg>
