<?xml version="1.0" encoding="UTF-8" standalone="no"?>
<!-- 'danger.svg': Red triangle w/ exclamation mark. White background -->

<svg
   xmlns:dc="http://purl.org/dc/elements/1.1/"
   xmlns:cc="http://creativecommons.org/ns#"
   xmlns:rdf="http://www.w3.org/1999/02/22-rdf-syntax-ns#"
   xmlns:svg="http://www.w3.org/2000/svg"
   xmlns="http://www.w3.org/2000/svg"
   xmlns:sodipodi="http://sodipodi.sourceforge.net/DTD/sodipodi-0.dtd"
   xmlns:inkscape="http://www.inkscape.org/namespaces/inkscape"
   height="21.30125"
   width="24.02865"
   viewBox="0 0 24.02865 21.30125"
   id="svg2"
   version="1.1"
   inkscape:version="0.48.5 r10040"
   sodipodi:docname="danger.svg">
  <metadata
     id="metadata16">
    <rdf:RDF>
      <cc:Work
         rdf:about="">
        <dc:format>image/svg+xml</dc:format>
        <dc:type
           rdf:resource="http://purl.org/dc/dcmitype/StillImage" />
        <dc:title></dc:title>
      </cc:Work>
    </rdf:RDF>
  </metadata>
  <defs
     id="defs14" />
  <sodipodi:namedview
     pagecolor="#ffffff"
     bordercolor="#666666"
     borderopacity="1"
     objecttolerance="10"
     gridtolerance="10"
     guidetolerance="10"
     inkscape:pageopacity="0"
     inkscape:pageshadow="2"
     inkscape:window-width="1134"
     inkscape:window-height="783"
     id="namedview12"
     showgrid="false"
     inkscape:zoom="6.8654545"
     inkscape:cx="50.437838"
     inkscape:cy="7.7486383"
     inkscape:window-x="315"
     inkscape:window-y="92"
     inkscape:window-maximized="0"
     inkscape:current-layer="svg2"
     fit-margin-top="0"
     fit-margin-left="0"
     fit-margin-right="0"
     fit-margin-bottom="0" />
  <!--
	<rect width="100%" height="100%" fill="#dddddd" />
	-->
  <circle
     cy="431"
     cx="314"
     r="31"
     id="circle10"
     style="fill:#ffffff"
     sodipodi:cx="314"
     sodipodi:cy="431"
     sodipodi:rx="31"
     sodipodi:ry="31"
     transform="translate(-287.90682,-265.79493)" />
  <g
     transform="matrix(1.25,0,0,-1.25,-396.26131,571.54875)"
     inkscape:label="warningicon"
     id="g3000">
    <g
       transform="translate(324.907,456.255)"
       id="g3002">
      <path
         id="path3004"
         style="fill:#005387;fill-opacity:1;fill-rule:nonzero;stroke:none"
         d="m 0,0 -7.625,-13.075 c -0.771,-1.322 0.183,-2.982 1.714,-2.982 l 15.25,0 c 1.53,0 2.484,1.66 1.713,2.982 L 3.427,0 C 2.662,1.312 0.766,1.312 0,0"
         inkscape:connector-curvature="0" />
    </g>
    <g
       transform="translate(325.359,452.652)"
       id="g3006">
      <path
         id="path3008"
         style="fill:#ffffff;fill-opacity:1;fill-rule:nonzero;stroke:none"
         d="M 0,0 2.524,0 C 2.809,0 3.029,-0.25 2.993,-0.532 L 2.136,-7.283 C 2.117,-7.439 1.984,-7.556 1.827,-7.556 l -1.131,0 c -0.157,0 -0.289,0.117 -0.309,0.273 L -0.47,-0.532 C -0.506,-0.25 -0.285,0 0,0 z m 1.262,-8.267 c -0.681,0 -1.233,-0.552 -1.233,-1.233 0,-0.68 0.552,-1.232 1.233,-1.232 0.681,0 1.233,0.552 1.233,1.232 0,0.681 -0.552,1.233 -1.233,1.233"
         inkscape:connector-curvature="0" />
    </g>
  </g>
</svg>
