<?xml version="1.0" encoding="UTF-8" standalone="no"?>
<svg
   xmlns="http://www.w3.org/2000/svg"
   viewBox="0 0 448 512"
   width="448px"
   height="512px"
   >

	<!-- "#f6bd16" is color for ISO 7010 warning signs -->
	<!-- "#004488" is color for ISO 7010 'M' (mandatory action) signs -->

	<!-- Outline for background fill of image  -->
	<path
		fill="red"
		d="M 0,		0
		L 448,		0 
		L 448,		512 
		L 0,		512
		Z
		"
		/>


	<!-- Outline for background fill of sign -->
	<path
		fill="#f6bd16"
		d="M 416,	512
		L 32,		512
		C 14.328,	512
		0,		497.687

		0,		480
		L 0,		32

		C 0,		14.312

		14.328,		0
		32,		0
		L 320,		0
		L 448,		128
		Z
		"
		/>

	<!-- Outline -->
	<path
		fill="black"

		d="M 416,	512
		L 32,		512
		C 14.328,	512
		0,		497.687
		0,		480
		L 0,		32
		C 0,		14.312
		14.328,		0
		32,		0
		L 320,		0
		L 448,		128
		L 448,		480
		C 448,		497.687
		433.688,	512
		416,		512
		Z

		M 320,		45.25
		L 320,		128
		L 402.75,	128
		L 320,		45.25
		Z

		M 416,		160
		L 320,		160
		C 302.312,	160
		288,		145.687
		288,		128
		L 288,		32
		L 32,		32
		L 32,		480
		L 416,		480
		L 416,		160
		Z
		"
		/>



	<!-- Line 1 (from top) -->
	<path
		d="M 66,	208
		C 66,		216.844
		73.156,	224
		82,		224
		L 370,		224
		C 378.844,	224
		386,		216.844
		386,		208
		C 386,		199.156
		378.844,	192
		370,		192
		L 82,		192
		C 73.156,	192
		66,		199.156
		66,		208
		Z
		"
		/>

	<!-- Line 2 (from top) -->
	<path
		d="M 66,	304
		C 66,		312.844
		70.156,		320
		82,		320

		L 370,		320
		C 378.844,	320
		386,		312.844
		386,		304
		C 386,		295.156
		378.844,	288
		370,		288

		L 82,		288
		C 73.156,	288
		66,		295.156
		66,		304
		Z
		"
		/>

	<!-- Line 3 (from top) -->
	<path
		d="M 66,	400
		C 66,		408.844
		70.156,		416
		82,		416

		L 330,		416
		C 338.844,	416
		346,		408.844
		346,		400
		C 346,		391.156
		338.844,	384
		330,		384

		L 82,		384
		C 73.156,	384
		66,		391.156
		66,		400
		Z
		"
		/>
</svg>
