<?xml version="1.0" encoding="UTF-8" standalone="no"?>
<!-- Generator: Adobe Illustrator 23.0.1, SVG Export Plug-In . SVG Version: 6.00 Build 0)  -->

<svg
   xmlns:dc="http://purl.org/dc/elements/1.1/"
   xmlns:cc="http://creativecommons.org/ns#"
   xmlns:rdf="http://www.w3.org/1999/02/22-rdf-syntax-ns#"
   xmlns:svg="http://www.w3.org/2000/svg"
   xmlns="http://www.w3.org/2000/svg"
   xmlns:sodipodi="http://sodipodi.sourceforge.net/DTD/sodipodi-0.dtd"
   xmlns:inkscape="http://www.inkscape.org/namespaces/inkscape"
   version="1.1"
   id="Layer_1"
   x="0px"
   y="0px"
   viewBox="0 0 57 56"
   style="enable-background:new 0 0 57 56;"
   xml:space="preserve"
   inkscape:version="0.48.5 r10040"
   width="100%"
   height="100%"
   sodipodi:docname="Danger.svg"><metadata
   id="metadata13"><rdf:RDF><cc:Work
       rdf:about=""><dc:format>image/svg+xml</dc:format><dc:type
         rdf:resource="http://purl.org/dc/dcmitype/StillImage" /><dc:title></dc:title></cc:Work></rdf:RDF></metadata><defs
   id="defs11" /><sodipodi:namedview
   pagecolor="#ffffff"
   bordercolor="#666666"
   borderopacity="1"
   objecttolerance="10"
   gridtolerance="10"
   guidetolerance="10"
   inkscape:pageopacity="0"
   inkscape:pageshadow="2"
   inkscape:window-width="1240"
   inkscape:window-height="737"
   id="namedview9"
   showgrid="false"
   inkscape:zoom="4.2142857"
   inkscape:cx="-9.2288136"
   inkscape:cy="28"
   inkscape:window-x="0"
   inkscape:window-y="0"
   inkscape:window-maximized="0"
   inkscape:current-layer="Layer_1" />
<style
   type="text/css"
   id="style3">
	.st0{fill:#005286;}
</style>

<path
   inkscape:connector-curvature="0"
   class="st0"
   d="m 32.65,50.655 c 0,0.37 -0.34,0.68 -0.76,0.68 h -2.68 c -0.42,0 -1.1,0 -1.52,0 h -2.66 c -0.42,0 -0.76,-0.31 -0.76,-0.68 0,-0.37 0.34,-0.68 0.76,-0.68 h 2.68 c 0.42,0 1.1,0 1.52,0 h 2.68 c 0.4,0 0.74,0.31 0.74,0.68 z m -0.75,-2.55 h -2.68 c -0.42,0 -1.1,0 -1.52,0 h -2.67 c -0.42,0 -0.76,0.31 -0.76,0.68 0,0.37 0.34,0.68 0.76,0.68 h 2.68 c 0.42,0 1.1,0 1.52,0 h 2.68 c 0.42,0 0.76,-0.31 0.76,-0.68 -0.02,-0.37 -0.36,-0.68 -0.77,-0.68 z m -0.56,4.07 h -2.12 c -0.42,0 -1.1,0 -1.52,0 h -2.12 c -0.42,0 -0.5,0.22 -0.18,0.49 l 0.77,0.66 c 0.32,0.27 0.91,0.49 1.33,0.49 h 0.2 c 0.42,0 1.1,0 1.52,0 h 0.2 c 0.42,0 1.01,-0.22 1.33,-0.49 l 0.77,-0.66 c 0.32,-0.27 0.24,-0.49 -0.18,-0.49 z M 10.58,24.005 H 6.91 c -0.44,0 -0.79,0.26 -0.79,0.58 0,0.32 0.36,0.58 0.79,0.58 h 3.66 c 0.44,0 0.79,-0.26 0.79,-0.58 0.01,-0.32 -0.35,-0.58 -0.78,-0.58 z M 28.46,7.4350002 c 0.32,0 0.57,-0.35 0.57,-0.79 v -3.67 c 0,-0.44 -0.26,-0.79 -0.57,-0.79 -0.32,0 -0.58,0.36 -0.58,0.79 v 3.66 c 0.01,0.45 0.27,0.8 0.58,0.8 z M 14.66,37.625 l -2.59,2.59 c -0.31,0.31 -0.38,0.75 -0.16,0.97 0.23,0.23 0.66,0.16 0.97,-0.15 l 2.59,-2.59 c 0.31,-0.31 0.38,-0.74 0.15,-0.97 -0.22,-0.23 -0.65,-0.17 -0.96,0.15 z m -0.04,-26.09 c 0.31,0.31 0.74,0.38 0.97,0.15 0.23,-0.22 0.16,-0.66 -0.15,-0.97 L 12.85,8.1250002 c -0.31,-0.31 -0.74,-0.38 -0.97,-0.16 -0.23,0.23 -0.16,0.66 0.15,0.97 L 14.62,11.535 z m 17.28,34.71 h -2.68 c -0.42,0 -1.1,0 -1.52,0 h -2.67 c -0.42,0 -0.76,0.31 -0.76,0.68 0,0.37 0.34,0.68 0.76,0.68 h 2.68 c 0.42,0 1.1,0 1.52,0 h 2.68 c 0.42,0 0.76,-0.31 0.76,-0.68 -0.02,-0.38 -0.36,-0.68 -0.77,-0.68 z m 8.67,-21.6 c 0,2.61 -0.82,5.02 -2.23,7 -0.15,0.31 -0.41,0.63 -0.77,0.98 0,0 0,0 0,0 -0.06,0.07 -0.12,0.13 -0.17,0.2 -0.25,0.27 -0.51,0.52 -0.77,0.77 -3.93,4.38 -2.91,8.6 -3.62,11.41 -1.55,0.47 -3.13,0.62 -4.54,0.62 -1.41,0.01 -2.99,-0.14 -4.54,-0.62 -0.72,-2.81 0.3,-7.03 -3.63,-11.41 -0.33,-0.31 -0.65,-0.63 -0.95,-0.97 0,0 0,0 0,0 -0.36,-0.34 -0.62,-0.67 -0.77,-0.98 -1.4,-1.98 -2.23,-4.39 -2.23,-7 0,-6.69 5.42,-12.11 12.11,-12.11 6.69,0 12.11,5.42 12.11,12.11 z m 1.8,12.93 c -0.31,-0.31 -0.74,-0.38 -0.97,-0.15 -0.22,0.22 -0.16,0.66 0.16,0.97 l 2.59,2.59 c 0.31,0.31 0.75,0.38 0.97,0.15 0.23,-0.22 0.16,-0.66 -0.15,-0.97 l -2.6,-2.59 z m -0.04,-26.08 2.59,-2.5899998 c 0.31,-0.31 0.38,-0.74 0.15,-0.97 -0.22,-0.23 -0.66,-0.16 -0.97,0.15 L 41.51,10.675 c -0.31,0.31 -0.38,0.74 -0.15,0.97 0.22,0.23 0.66,0.16 0.97,-0.15 z m 7.74,12.46 h -3.66 c -0.44,0 -0.79,0.26 -0.79,0.58 0,0.32 0.36,0.57 0.8,0.58 l 3.66,0 c 0.44,0 0.8,-0.26 0.8,-0.57 -0.01,-0.33 -0.37,-0.59 -0.81,-0.59 z"
   id="path5"
   style="fill:#005286" /></svg>