<?xml version="1.0" encoding="UTF-8" standalone="no"?>
<svg
   xmlns="http://www.w3.org/2000/svg"
   viewBox="0 0 400 380"
   width="400px"
   height="380px"
   >
   <!--
   viewBox="0 0 400 460"
   width="400px"
   height="460px"
   -->

	<!-- "#f6bd16" is color for ISO 7010 warning signs -->
	<!-- "#004488" is color for ISO 7010 'M' (mandatory action) signs -->

	<!--
		X	= 0
		Y	= 0
		width	= 448
		height	= 512


		center:
		X       = 0 + (448 / 2)		= 224
		Y       = 0 + (512 / 2)		= 256

		scale: 0.8
		translate X : (1 -0.8) * 224	= 44.8
		translate Y : (1 -0.8) * 256	= 51.2
		<g transform="translate(44.8, 51.2) scale(0.8)">
		<g transform="translate(30, 10) scale(0.8)">

	-->

	<!-- Outline for background fill of image  -->
		<g transform="translate(40, 10) scale(0.7)">
	<path
		fill="red"
		opacity="0"
		d="M 0,		0
		L 448,		0 
		L 448,		512 
		L 0,		512
		Z
		"
		/>


	<!-- Outline for background fill of sign -->
	<path
		fill="#f6bd16"
		d="M 416,	512
		L 32,		512
		C 14.3,	512
		0,		497.7

		0,		480
		L 0,		32

		C 0,		14.3

		14.328,		0
		32,		0
		L 320,		0
		L 448,		128
		Z
		"
		/>

	<!-- Outline -->
	<path
		fill="black"

		d="M 416,	512
		L 32,		512
		C 14.328,	512
		0,		497.7
		0,		480
		L 0,		32
		C 0,		14.3
		14.328,		0
		32,		0
		L 320,		0
		L 448,		128
		L 448,		480
		C 448,		497.7
		433.688,	512
		416,		512
		Z

		M 320,		45.25
		L 320,		128
		L 402.75,	128
		L 320,		45.25
		Z

		M 416,		160
		L 320,		160
		C 302.312,	160
		288,		145.7
		288,		128
		L 288,		32
		L 32,		32
		L 32,		480
		L 416,		480
		L 416,		160
		Z
		"
		/>



	<!-- Line 1 (from top) -->
	<path
		d="M 66,	208
		C 66,		216.8
		73.156,	224
		82,		224
		L 370,		224
		C 378.844,	224
		386,		216.844
		386,		208
		C 386,		199.156
		378.844,	192
		370,		192
		L 82,		192
		C 73.156,	192
		66,		199.156
		66,		208
		Z
		"
		/>

	<!-- Line 2 (from top) -->
	<path
		d="M 66,	304
		C 66,		312.8
		70.156,		320
		82,		320

		L 370,		320
		C 378.844,	320
		386,		312.8
		386,		304
		C 386,		295.16
		378.844,	288
		370,		288

		L 82,		288
		C 73.156,	288
		66,		295.16
		66,		304
		Z
		"
		/>

	<!-- Line 3 (from top) -->
	<path
		d="M 66,	400
		C 66,		408.84
		70.156,		416
		82,		416

		L 330,		416
		C 338.844,	416
		346,		408.84
		346,		400
		C 346,		391.16
		338.844,	384
		330,		384

		L 82,		384
		C 73.156,	384
		66,		391.16
		66,		400
		Z
		"
		/>
	</g>
</svg>
