<?xml version="1.0" encoding="UTF-8" standalone="no"?>
<!-- 'tip' / 'information' sign/icon (circle with Consolas Bold 'i' inside) -->

<svg xmlns="http://www.w3.org/2000/svg"
	height="550"
	width="627"
	viewBox="0 0 627 550"
  	>
	<!--
	<rect width="100%" height="100%" fill="#dddddd" />
	-->
	<circle
		style="
			stroke-width: 65 ;
			fill:#000088;
			stroke:#000088;
			fill-opacity:1;
			stroke-opacity:1;
			"
		cx="314"
		cy="274"
		r="229"
		/>

	<!-- Path for letter 'i' -->
	<!--
		X	= 225
		Y	= 133
		width	= 176
		height	= 295


		center:
			X       = 225 + (176 / 2)	= 313
			Y       = 133 + (295 / 2)	= 280.5

		scale: 0.8
		translate X : (1 -1.15) * 313	= -47
		translate Y : (1 -1.15) * 280.5	= -42
		<g transform="translate(-47, -42) scale(1.15)">

	-->
		<g transform="translate(10, 0) scale(1)">
	<path
		style="
			fill: #ffffff ;
			"
		d="m 345.57641,154.41569
		q 0,6.7 -2.44,12.59163
		-2.43709,5.88964 -6.90509,10.35764 -4.26491,4.26491
		-10.15455,6.90509 -5.88963,2.43709 -12.79472,2.43709
		-6.90509,0 -12.99782,-2.43709 -5.88964,-2.64018
		-10.35764,-6.90509 -4.2649,-4.468 -6.70199,-10.35764
		-2.4371,-5.88963 -2.4371,-12.59163 0,-6.702
		2.4371,-12.59164 2.43709,-5.88963 6.70199,-10.35763 4.468,
		-4.468 10.35764,-6.90509 6.09273,-2.64018 12.99782,
		-2.64018 6.90509,0 12.79472,2.64018 5.88964,2.43709 10.15455,6.90509
		4.468,4.468 6.90509,10.35763 2.43709,5.88964 2.43709,12.59164
		z
		m -54.83454,95.04654 -58.28709,0 0,-38.58727 109.05981,
		0 0,167.75307 59.50563,0 0,38.58727 -175.67362,
		0 0,-38.58727 65.39527,0 0,-129.1658
		z
		"
		/>
		</g>
</svg>
