<?xml version="1.0" encoding="UTF-8" standalone="no"?>
<!-- Generator: Adobe Illustrator 23.0.1, SVG Export Plug-In . SVG Version: 6.00 Build 0)  -->

<svg
   xmlns:dc="http://purl.org/dc/elements/1.1/"
   xmlns:cc="http://creativecommons.org/ns#"
   xmlns:rdf="http://www.w3.org/1999/02/22-rdf-syntax-ns#"
   xmlns:svg="http://www.w3.org/2000/svg"
   xmlns="http://www.w3.org/2000/svg"
   xmlns:sodipodi="http://sodipodi.sourceforge.net/DTD/sodipodi-0.dtd"
   xmlns:inkscape="http://www.inkscape.org/namespaces/inkscape"
   version="1.1"
   id="Layer_1"
   x="0px"
   y="0px"
   viewBox="0 0 57 56"
   style="enable-background:new 0 0 57 56;"
   xml:space="preserve"
   inkscape:version="0.48.5 r10040"
   width="100%"
   height="100%"
   sodipodi:docname="Notice.svg"><metadata
   id="metadata13"><rdf:RDF><cc:Work
       rdf:about=""><dc:format>image/svg+xml</dc:format><dc:type
         rdf:resource="http://purl.org/dc/dcmitype/StillImage" /><dc:title></dc:title></cc:Work></rdf:RDF></metadata><defs
   id="defs11" /><sodipodi:namedview
   pagecolor="#ffffff"
   bordercolor="#666666"
   borderopacity="1"
   objecttolerance="10"
   gridtolerance="10"
   guidetolerance="10"
   inkscape:pageopacity="0"
   inkscape:pageshadow="2"
   inkscape:window-width="1240"
   inkscape:window-height="737"
   id="namedview9"
   showgrid="false"
   inkscape:zoom="4.2142857"
   inkscape:cx="-9.2288136"
   inkscape:cy="28"
   inkscape:window-x="0"
   inkscape:window-y="0"
   inkscape:window-maximized="0"
   inkscape:current-layer="Layer_1" />
<style
   type="text/css"
   id="style3">
	.st0{fill:#005286;}
</style>

<g
   transform="translate(12.684497,-3.8272879)"
   id="g5"><path
     inkscape:connector-curvature="0"
     class="st0"
     d="m 15.81,-21.83 m -0.16,78.84 c -4.1,0 -7.19,-3.6 -7.19,-7.26 0,-3.53 2.65,-7.47 7.19,-7.47 4.48,0 7.51,3.46 7.51,7.47 0,3.95 -2.9,7.26 -7.51,7.26 z M 9.78,6.76 h 12.05 c 1.01,0 1.91,0.82 1.83,1.82 -0.62,7.72 -3.79,27.57 -4.38,29.42 -0.31,0.96 -1.37,1.74 -2.38,1.74 h -2.1 c -1.01,0 -2.14,-0.75 -2.48,-1.7 C 11.73,36.42 8.4,16 7.97,8.58 7.9,7.58 8.77,6.76 9.78,6.76 z"
     id="path7"
     style="fill:#005286" /></g></svg>